<svg width="154" height="48" viewBox="0 0 154 48" fill="none" xmlns="http://www.w3.org/2000/svg">
<rect y="0.000213623" width="154" height="48" rx="24" fill="#F2F2F2"/>
<path d="M25.6667 24.0002H42.3334" stroke="#4B4B4B" stroke-width="2" stroke-miterlimit="10" stroke-linecap="round" stroke-linejoin="round"/>
<path d="M36.5 18.1669L42.3333 24.0002L36.5 29.8335" stroke="#4B4B4B" stroke-width="2" stroke-miterlimit="10" stroke-linecap="round" stroke-linejoin="round"/>
<path d="M52.9482 29.0002V18.0911H57.2521C58.076 18.0911 58.7791 18.2385 59.3615 18.5332C59.9474 18.8244 60.3931 19.2381 60.6985 19.7744C61.0075 20.307 61.1619 20.9338 61.1619 21.6547C61.1619 22.3791 61.0057 23.0023 60.6932 23.5244C60.3807 24.0428 59.9279 24.4406 59.3349 24.7175C58.7454 24.9945 58.0316 25.133 57.1935 25.133H54.3118V23.2793H56.8207C57.261 23.2793 57.6268 23.219 57.918 23.0982C58.2092 22.9775 58.4258 22.7964 58.5678 22.5549C58.7134 22.3134 58.7862 22.0134 58.7862 21.6547C58.7862 21.2925 58.7134 20.9871 58.5678 20.7385C58.4258 20.4899 58.2074 20.3017 57.9126 20.1739C57.6214 20.0425 57.2539 19.9768 56.81 19.9768H55.2546V29.0002H52.9482ZM58.8395 24.0357L61.5508 29.0002H59.0046L56.3519 24.0357H58.8395ZM66.3461 29.16C65.5045 29.16 64.7801 28.9896 64.1729 28.6487C63.5692 28.3042 63.104 27.8177 62.7773 27.1891C62.4506 26.557 62.2872 25.8095 62.2872 24.9466C62.2872 24.105 62.4506 23.3663 62.7773 22.7307C63.104 22.095 63.5638 21.5996 64.1569 21.2445C64.7535 20.8894 65.453 20.7119 66.2556 20.7119C66.7954 20.7119 67.2979 20.7989 67.7631 20.9729C68.2318 21.1433 68.6402 21.4008 68.9882 21.7452C69.3398 22.0897 69.6132 22.5229 69.8085 23.045C70.0038 23.5634 70.1015 24.1707 70.1015 24.8667V25.4899H63.1927V24.0837H67.9655C67.9655 23.757 67.8944 23.4675 67.7524 23.2154C67.6104 22.9633 67.4133 22.7662 67.1611 22.6241C66.9126 22.4786 66.6231 22.4058 66.2929 22.4058C65.9484 22.4058 65.643 22.4857 65.3767 22.6455C65.1139 22.8017 64.9079 23.013 64.7588 23.2793C64.6096 23.5421 64.5333 23.8351 64.5297 24.1582V25.4952C64.5297 25.9001 64.6043 26.2499 64.7535 26.5446C64.9062 26.8393 65.121 27.0666 65.398 27.2264C65.675 27.3862 66.0035 27.4661 66.3834 27.4661C66.6356 27.4661 66.8664 27.4306 67.0759 27.3596C67.2854 27.2886 67.4648 27.182 67.6139 27.04C67.7631 26.8979 67.8767 26.7239 67.9548 26.518L70.0535 26.6565C69.947 27.1607 69.7286 27.6011 69.3983 27.9775C69.0716 28.3504 68.6491 28.6415 68.1306 28.8511C67.6157 29.057 67.0209 29.16 66.3461 29.16ZM73.9154 29.1547C73.3934 29.1547 72.9282 29.0641 72.5198 28.883C72.1114 28.6984 71.7883 28.4267 71.5503 28.068C71.316 27.7058 71.1988 27.2548 71.1988 26.7151C71.1988 26.2605 71.2822 25.8788 71.4491 25.5698C71.616 25.2609 71.8433 25.0123 72.1309 24.8241C72.4186 24.6359 72.7453 24.4938 73.1111 24.3979C73.4804 24.3021 73.8675 24.2346 74.2723 24.1955C74.7481 24.1458 75.1317 24.0996 75.4229 24.057C75.714 24.0109 75.9253 23.9434 76.0567 23.8546C76.1881 23.7658 76.2538 23.6344 76.2538 23.4604V23.4285C76.2538 23.0911 76.1473 22.8301 75.9342 22.6455C75.7247 22.4608 75.4264 22.3685 75.0393 22.3685C74.6309 22.3685 74.306 22.459 74.0645 22.6401C73.8231 22.8177 73.6633 23.0414 73.5851 23.3113L71.4864 23.1408C71.593 22.6437 71.8025 22.214 72.115 21.8518C72.4275 21.486 72.8305 21.2055 73.3241 21.0102C73.8213 20.8113 74.3966 20.7119 75.05 20.7119C75.5045 20.7119 75.9395 20.7651 76.355 20.8717C76.7741 20.9782 77.1452 21.1433 77.4683 21.367C77.795 21.5908 78.0525 21.8784 78.2407 22.23C78.4289 22.578 78.523 22.9952 78.523 23.4817V29.0002H76.371V27.8656H76.3071C76.1757 28.1213 75.9999 28.3468 75.7797 28.5421C75.5596 28.7339 75.295 28.8848 74.9861 28.9949C74.6771 29.1014 74.3202 29.1547 73.9154 29.1547ZM74.5653 27.5886C74.8991 27.5886 75.1938 27.5229 75.4495 27.3915C75.7052 27.2566 75.9058 27.0755 76.0514 26.8482C76.197 26.621 76.2698 26.3635 76.2698 26.0759V25.2076C76.1988 25.2538 76.1011 25.2964 75.9768 25.3354C75.8561 25.371 75.7194 25.4047 75.5667 25.4366C75.414 25.4651 75.2613 25.4917 75.1086 25.5165C74.9559 25.5379 74.8174 25.5574 74.6931 25.5751C74.4268 25.6142 74.1942 25.6763 73.9953 25.7616C73.7964 25.8468 73.642 25.9622 73.5319 26.1078C73.4218 26.2499 73.3667 26.4274 73.3667 26.6405C73.3667 26.9494 73.4786 27.1856 73.7023 27.3489C73.9296 27.5087 74.2172 27.5886 74.5653 27.5886ZM83.2984 29.1334C82.6769 29.1334 82.1141 28.9736 81.6098 28.654C81.1091 28.3308 80.7114 27.8567 80.4166 27.2317C80.1254 26.6032 79.9798 25.8326 79.9798 24.92C79.9798 23.9825 80.1308 23.203 80.4326 22.5815C80.7345 21.9565 81.1357 21.4896 81.6365 21.1806C82.1407 20.8681 82.6929 20.7119 83.2931 20.7119C83.7512 20.7119 84.1329 20.79 84.4383 20.9462C84.7472 21.0989 84.9958 21.2907 85.184 21.5215C85.3758 21.7488 85.5214 21.9725 85.6208 22.1927H85.6901V18.0911H87.9539V29.0002H85.7167V27.6898H85.6208C85.5143 27.9171 85.3634 28.1426 85.1681 28.3663C84.9763 28.5865 84.7259 28.7694 84.417 28.915C84.1116 29.0606 83.7387 29.1334 83.2984 29.1334ZM84.0175 27.3276C84.3833 27.3276 84.6922 27.2282 84.9443 27.0293C85.2 26.8269 85.3953 26.5446 85.5303 26.1824C85.6688 25.8202 85.738 25.3958 85.738 24.9093C85.738 24.4228 85.6705 24.0002 85.5356 23.6415C85.4007 23.2829 85.2053 23.0059 84.9497 22.8106C84.694 22.6153 84.3833 22.5176 84.0175 22.5176C83.6446 22.5176 83.3303 22.6188 83.0747 22.8212C82.819 23.0237 82.6254 23.3042 82.4941 23.6629C82.3627 24.0215 82.297 24.437 82.297 24.9093C82.297 25.3852 82.3627 25.806 82.4941 26.1717C82.629 26.5339 82.8225 26.818 83.0747 27.024C83.3303 27.2264 83.6446 27.3276 84.0175 27.3276ZM93.2913 29.0002V20.8184H95.4539V22.2619H95.5498C95.7203 21.7825 96.0044 21.4043 96.4021 21.1273C96.7998 20.8504 97.2757 20.7119 97.8296 20.7119C98.3907 20.7119 98.8683 20.8521 99.2625 21.1327C99.6567 21.4097 99.9195 21.7861 100.051 22.2619H100.136C100.303 21.7932 100.605 21.4185 101.042 21.138C101.482 20.8539 102.002 20.7119 102.602 20.7119C103.366 20.7119 103.986 20.9551 104.461 21.4416C104.941 21.9246 105.18 22.6099 105.18 23.4977V29.0002H102.917V23.9452C102.917 23.4906 102.796 23.1497 102.554 22.9224C102.313 22.6952 102.011 22.5815 101.649 22.5815C101.237 22.5815 100.916 22.7129 100.685 22.9757C100.454 23.2349 100.339 23.5776 100.339 24.0038V29.0002H98.1386V23.8972C98.1386 23.496 98.0232 23.1763 97.7923 22.9384C97.5651 22.7005 97.265 22.5815 96.8921 22.5815C96.64 22.5815 96.4127 22.6455 96.2103 22.7733C96.0115 22.8976 95.8534 23.0734 95.7362 23.3006C95.6191 23.5244 95.5605 23.7871 95.5605 24.089V29.0002H93.2913ZM110.67 29.16C109.842 29.16 109.127 28.9842 108.523 28.6327C107.923 28.2776 107.459 27.7839 107.133 27.1518C106.806 26.5162 106.643 25.7793 106.643 24.9413C106.643 24.0961 106.806 23.3575 107.133 22.7254C107.459 22.0897 107.923 21.5961 108.523 21.2445C109.127 20.8894 109.842 20.7119 110.67 20.7119C111.497 20.7119 112.211 20.8894 112.811 21.2445C113.415 21.5961 113.88 22.0897 114.207 22.7254C114.533 23.3575 114.697 24.0961 114.697 24.9413C114.697 25.7793 114.533 26.5162 114.207 27.1518C113.88 27.7839 113.415 28.2776 112.811 28.6327C112.211 28.9842 111.497 29.16 110.67 29.16ZM110.68 27.4022C111.057 27.4022 111.371 27.2957 111.623 27.0826C111.875 26.866 112.065 26.5712 112.193 26.1984C112.324 25.8255 112.39 25.4011 112.39 24.9253C112.39 24.4494 112.324 24.0251 112.193 23.6522C112.065 23.2793 111.875 22.9846 111.623 22.768C111.371 22.5513 111.057 22.443 110.68 22.443C110.3 22.443 109.981 22.5513 109.722 22.768C109.466 22.9846 109.272 23.2793 109.141 23.6522C109.013 24.0251 108.949 24.4494 108.949 24.9253C108.949 25.4011 109.013 25.8255 109.141 26.1984C109.272 26.5712 109.466 26.866 109.722 27.0826C109.981 27.2957 110.3 27.4022 110.68 27.4022ZM116.172 29.0002V20.8184H118.372V22.246H118.457C118.606 21.7381 118.857 21.3546 119.208 21.0954C119.56 20.8326 119.965 20.7012 120.423 20.7012C120.536 20.7012 120.659 20.7083 120.79 20.7225C120.922 20.7367 121.037 20.7563 121.137 20.7811V22.7946C121.03 22.7626 120.883 22.7342 120.695 22.7094C120.506 22.6845 120.334 22.6721 120.178 22.6721C119.844 22.6721 119.546 22.7449 119.283 22.8905C119.024 23.0325 118.818 23.2314 118.665 23.4871C118.516 23.7428 118.441 24.0375 118.441 24.3713V29.0002H116.172ZM125.658 29.16C124.816 29.16 124.092 28.9896 123.484 28.6487C122.881 28.3042 122.415 27.8177 122.089 27.1891C121.762 26.557 121.599 25.8095 121.599 24.9466C121.599 24.105 121.762 23.3663 122.089 22.7307C122.415 22.095 122.875 21.5996 123.468 21.2445C124.065 20.8894 124.765 20.7119 125.567 20.7119C126.107 20.7119 126.609 20.7989 127.075 20.9729C127.543 21.1433 127.952 21.4008 128.3 21.7452C128.651 22.0897 128.925 22.5229 129.12 23.045C129.315 23.5634 129.413 24.1707 129.413 24.8667V25.4899H122.504V24.0837H127.277C127.277 23.757 127.206 23.4675 127.064 23.2154C126.922 22.9633 126.725 22.7662 126.473 22.6241C126.224 22.4786 125.935 22.4058 125.604 22.4058C125.26 22.4058 124.955 22.4857 124.688 22.6455C124.425 22.8017 124.219 23.013 124.07 23.2793C123.921 23.5421 123.845 23.8351 123.841 24.1582V25.4952C123.841 25.9001 123.916 26.2499 124.065 26.5446C124.218 26.8393 124.433 27.0666 124.71 27.2264C124.987 27.3862 125.315 27.4661 125.695 27.4661C125.947 27.4661 126.178 27.4306 126.387 27.3596C126.597 27.2886 126.776 27.182 126.925 27.04C127.075 26.8979 127.188 26.7239 127.266 26.518L129.365 26.6565C129.259 27.1607 129.04 27.6011 128.71 27.9775C128.383 28.3504 127.961 28.6415 127.442 28.8511C126.927 29.057 126.332 29.16 125.658 29.16Z" fill="#4B4B4B"/>
</svg>
