<svg width="24" height="25" viewBox="0 0 24 25" fill="none" xmlns="http://www.w3.org/2000/svg">
<path d="M23.8 7.53384C23.8 7.53384 23.6 5.83384 22.8 5.13384C21.9 4.13384 20.9 4.13384 20.4 4.13384C17 3.93384 12 3.93384 12 3.93384C12 3.93384 7 3.93384 3.6 4.13384C3.1 4.23384 2.1 4.23384 1.2 5.13384C0.5 5.83384 0.2 7.53384 0.2 7.53384C0.2 7.53384 0 9.43384 0 11.4338V13.2338C0 15.1338 0.2 17.1338 0.2 17.1338C0.2 17.1338 0.4 18.8338 1.2 19.5338C2.1 20.5338 3.3 20.4338 3.8 20.5338C5.7 20.7338 12 20.7338 12 20.7338C12 20.7338 17 20.7338 20.4 20.4338C20.9 20.3338 21.9 20.3338 22.8 19.4338C23.5 18.7338 23.8 17.0338 23.8 17.0338C23.8 17.0338 24 15.1338 24 13.1338V11.3338C24 9.43384 23.8 7.53384 23.8 7.53384ZM9.5 15.4338V8.73384L16 12.1338L9.5 15.4338Z" fill="#4B4B4B"/>
</svg>
