<svg width="58" height="12" viewBox="0 0 58 12" fill="none" xmlns="http://www.w3.org/2000/svg">
<path d="M0.383523 0.424649H1.89631L4.92188 5.51698H5.04972L8.07528 0.424649H9.58807L5.64631 6.838V11.3337H4.32528V6.838L0.383523 0.424649ZM13.2928 11.5042C12.5542 11.5042 11.9061 11.3284 11.3485 10.9769C10.7946 10.6253 10.3613 10.1335 10.0488 9.50135C9.73988 8.86925 9.5854 8.13062 9.5854 7.28544C9.5854 6.43317 9.73988 5.68921 10.0488 5.05356C10.3613 4.4179 10.7946 3.92429 11.3485 3.57273C11.9061 3.22117 12.5542 3.04539 13.2928 3.04539C14.0314 3.04539 14.6777 3.22117 15.2317 3.57273C15.7892 3.92429 16.2225 4.4179 16.5314 5.05356C16.8439 5.68921 17.0002 6.43317 17.0002 7.28544C17.0002 8.13062 16.8439 8.86925 16.5314 9.50135C16.2225 10.1335 15.7892 10.6253 15.2317 10.9769C14.6777 11.3284 14.0314 11.5042 13.2928 11.5042ZM13.2928 10.3749C13.8539 10.3749 14.3155 10.2311 14.6777 9.94347C15.04 9.65583 15.3081 9.27763 15.4821 8.80888C15.6561 8.34013 15.7431 7.83232 15.7431 7.28544C15.7431 6.73857 15.6561 6.22898 15.4821 5.75668C15.3081 5.28438 15.04 4.90263 14.6777 4.61144C14.3155 4.32025 13.8539 4.17465 13.2928 4.17465C12.7317 4.17465 12.2701 4.32025 11.9078 4.61144C11.5456 4.90263 11.2775 5.28438 11.1035 5.75668C10.9295 6.22898 10.8425 6.73857 10.8425 7.28544C10.8425 7.83232 10.9295 8.34013 11.1035 8.80888C11.2775 9.27763 11.5456 9.65583 11.9078 9.94347C12.2701 10.2311 12.7317 10.3749 13.2928 10.3749ZM24.0754 7.98857V3.15192H25.3325V11.3337H24.0754V9.9488H23.9901C23.7984 10.3643 23.5001 10.7176 23.0953 11.0088C22.6904 11.2965 22.1791 11.4403 21.5612 11.4403C21.0498 11.4403 20.5953 11.3284 20.1975 11.1047C19.7998 10.8774 19.4873 10.5365 19.26 10.082C19.0328 9.62387 18.9191 9.04681 18.9191 8.35079V3.15192H20.1762V8.26556C20.1762 8.86215 20.3431 9.338 20.6769 9.69312C21.0143 10.0482 21.444 10.2258 21.966 10.2258C22.2785 10.2258 22.5963 10.1459 22.9195 9.98608C23.2462 9.82628 23.5196 9.58125 23.7398 9.251C23.9635 8.92074 24.0754 8.49993 24.0754 7.98857ZM31.1932 3.15192V4.21726H26.9531V3.15192H31.1932ZM28.1889 1.19169H29.446V8.98999C29.446 9.3451 29.4975 9.61144 29.6005 9.789C29.707 9.963 29.842 10.0802 30.0053 10.1406C30.1722 10.1974 30.348 10.2258 30.5327 10.2258C30.6712 10.2258 30.7848 10.2187 30.8736 10.2045C30.9624 10.1867 31.0334 10.1725 31.0866 10.1619L31.3423 11.2911C31.2571 11.3231 31.1381 11.355 30.9854 11.387C30.8327 11.4225 30.6392 11.4403 30.4048 11.4403C30.0497 11.4403 29.7017 11.3639 29.3608 11.2112C29.0234 11.0585 28.7429 10.8259 28.5192 10.5134C28.299 10.2009 28.1889 9.80675 28.1889 9.3309V1.19169ZM38.2404 7.98857V3.15192H39.4975V11.3337H38.2404V9.9488H38.1552C37.9634 10.3643 37.6651 10.7176 37.2603 11.0088C36.8555 11.2965 36.3441 11.4403 35.7262 11.4403C35.2148 11.4403 34.7603 11.3284 34.3626 11.1047C33.9648 10.8774 33.6523 10.5365 33.4251 10.082C33.1978 9.62387 33.0842 9.04681 33.0842 8.35079V3.15192H34.3413V8.26556C34.3413 8.86215 34.5082 9.338 34.842 9.69312C35.1793 10.0482 35.609 10.2258 36.131 10.2258C36.4435 10.2258 36.7614 10.1459 37.0845 9.98608C37.4112 9.82628 37.6847 9.58125 37.9048 9.251C38.1286 8.92074 38.2404 8.49993 38.2404 7.98857ZM41.9704 11.3337V0.424649H43.2275V4.45164H43.3341C43.4264 4.30959 43.5542 4.12848 43.7176 3.90831C43.8845 3.68459 44.1224 3.48573 44.4314 3.31172C44.7439 3.13417 45.1665 3.04539 45.6991 3.04539C46.3881 3.04539 46.9953 3.21762 47.5209 3.56208C48.0464 3.90654 48.4566 4.39482 48.7513 5.02692C49.0461 5.65902 49.1934 6.40476 49.1934 7.26414C49.1934 8.13062 49.0461 8.88168 48.7513 9.51733C48.4566 10.1494 48.0482 10.6395 47.5262 10.9875C47.0042 11.332 46.4023 11.5042 45.7204 11.5042C45.1949 11.5042 44.7741 11.4172 44.458 11.2432C44.142 11.0656 43.8987 10.865 43.7282 10.6413C43.5578 10.414 43.4264 10.2258 43.3341 10.0766H43.1849V11.3337H41.9704ZM43.2062 7.24283C43.2062 7.86073 43.2968 8.40583 43.4779 8.87813C43.659 9.34688 43.9236 9.71442 44.2716 9.98076C44.6196 10.2435 45.0457 10.3749 45.55 10.3749C46.0756 10.3749 46.5141 10.2364 46.8657 9.95945C47.2208 9.67891 47.4871 9.30249 47.6647 8.83019C47.8458 8.35434 47.9363 7.82522 47.9363 7.24283C47.9363 6.66755 47.8476 6.14908 47.67 5.68743C47.496 5.22223 47.2314 4.85469 46.8763 4.58481C46.5248 4.31137 46.0827 4.17465 45.55 4.17465C45.0386 4.17465 44.6089 4.30427 44.2609 4.5635C43.9129 4.81918 43.6501 5.17785 43.4726 5.63949C43.295 6.09759 43.2062 6.63204 43.2062 7.24283ZM54.5468 11.5042C53.7584 11.5042 53.0784 11.3302 52.5067 10.9822C51.9385 10.6306 51.4999 10.1406 51.191 9.51201C50.8856 8.8799 50.7329 8.14482 50.7329 7.30675C50.7329 6.46868 50.8856 5.73005 51.191 5.09084C51.4999 4.44809 51.9296 3.94738 52.48 3.58871C53.034 3.2265 53.6803 3.04539 54.4189 3.04539C54.8451 3.04539 55.2659 3.11641 55.6814 3.25846C56.0969 3.4005 56.4751 3.63133 56.816 3.95093C57.1569 4.26698 57.4285 4.68601 57.6309 5.20803C57.8334 5.73005 57.9346 6.3728 57.9346 7.1363V7.66897H51.6278V6.58232H56.6562C56.6562 6.12067 56.5638 5.70874 56.3792 5.34652C56.1981 4.98431 55.9388 4.69844 55.6015 4.48892C55.2677 4.27941 54.8735 4.17465 54.4189 4.17465C53.9182 4.17465 53.485 4.29894 53.1192 4.54752C52.757 4.79255 52.4782 5.11215 52.2829 5.50633C52.0876 5.9005 51.99 6.32309 51.99 6.77408V7.49851C51.99 8.11641 52.0965 8.6402 52.3096 9.06989C52.5262 9.49603 52.8263 9.82096 53.2098 10.0447C53.5933 10.2648 54.039 10.3749 54.5468 10.3749C54.877 10.3749 55.1753 10.3288 55.4417 10.2364C55.7116 10.1406 55.9442 9.99851 56.1395 9.8103C56.3348 9.61854 56.4857 9.38062 56.5922 9.09652L57.8067 9.43743C57.6789 9.84937 57.464 10.2116 57.1622 10.5241C56.8604 10.833 56.4875 11.0745 56.0436 11.2485C55.5997 11.419 55.1008 11.5042 54.5468 11.5042Z" fill="#4B4B4B"/>
</svg>
